<?xml version="1.0" encoding="UTF-8" standalone="no"?>
<!-- Created with Inkscape (http://www.inkscape.org/) -->

<svg
   xmlns:dc="http://purl.org/dc/elements/1.1/"
   xmlns:cc="http://creativecommons.org/ns#"
   xmlns:rdf="http://www.w3.org/1999/02/22-rdf-syntax-ns#"
   xmlns:svg="http://www.w3.org/2000/svg"
   xmlns="http://www.w3.org/2000/svg"
   xmlns:sodipodi="http://sodipodi.sourceforge.net/DTD/sodipodi-0.dtd"
   xmlns:inkscape="http://www.inkscape.org/namespaces/inkscape"
   width="166.13535"
   height="57.930462"
   viewBox="0 0 43.956642 15.327434"
   version="1.1"
   id="svg2246"
   inkscape:version="0.92.0 r15299"
   sodipodi:docname="mcbride.svg">
  <defs
     id="defs2240">
    <clipPath
       id="clipPath1746"
       clipPathUnits="userSpaceOnUse">
      <path
         inkscape:connector-curvature="0"
         id="path1744"
         d="m 406.629,707.457 h 149.67 v 52.228 h -149.67 z" />
    </clipPath>
    <clipPath
       id="clipPath1794"
       clipPathUnits="userSpaceOnUse">
      <path
         inkscape:connector-curvature="0"
         id="path1792"
         d="m 460.304,714.606 h 95.995 v -7.15 h -95.995 z" />
    </clipPath>
    <clipPath
       id="clipPath1798"
       clipPathUnits="userSpaceOnUse">
      <path
         inkscape:connector-curvature="0"
         id="path1796"
         d="M 460.304,707.456 H 556.3 v 7.15 h -95.996 z" />
    </clipPath>
  </defs>
  <sodipodi:namedview
     id="base"
     pagecolor="#ffffff"
     bordercolor="#666666"
     borderopacity="1.0"
     inkscape:pageopacity="0.0"
     inkscape:pageshadow="2"
     inkscape:zoom="5.4319081"
     inkscape:cx="82.567671"
     inkscape:cy="28.46523"
     inkscape:document-units="mm"
     inkscape:current-layer="layer1"
     showgrid="false"
     fit-margin-top="0"
     fit-margin-left="0"
     fit-margin-right="0"
     fit-margin-bottom="0"
     units="px"
     inkscape:window-width="1280"
     inkscape:window-height="744"
     inkscape:window-x="-4"
     inkscape:window-y="-4"
     inkscape:window-maximized="1" />
  <metadata
     id="metadata2243">
    <rdf:RDF>
      <cc:Work
         rdf:about="">
        <dc:format>image/svg+xml</dc:format>
        <dc:type
           rdf:resource="http://purl.org/dc/dcmitype/StillImage" />
        <dc:title></dc:title>
      </cc:Work>
    </rdf:RDF>
  </metadata>
  <g
     inkscape:label="Layer 1"
     inkscape:groupmode="layer"
     id="layer1"
     transform="translate(-108.97403,-172.36031)">
    <g
       id="g2875"
       transform="translate(0.13229128,-0.13228331)">
      <path
         d="m 120.4131,184.18721 0.47801,-2.52906 c 0.15487,-0.80046 0.34043,-1.74414 0.61313,-2.91606 h -0.0314 c -0.51258,1.00647 -1.05974,2.03552 -1.52153,2.83315 l -1.39347,2.46486 h -1.6764 l -0.16192,-2.45639 c -0.0501,-0.75847 -0.10936,-1.80305 -0.14641,-2.84162 h -0.0264 c -0.27235,1.06256 -0.51823,2.12195 -0.7366,2.91606 l -0.69992,2.52906 h -1.96038 l 2.09903,-7.06332 h 2.8956 l 0.0963,2.09586 c 0.0314,0.68685 0.12454,1.55292 0.11642,2.4518 h 0.0543 c 0.3743,-0.89888 0.85795,-1.80975 1.22026,-2.46733 l 1.11548,-2.08033 h 2.92664 l -1.17863,7.06332 z"
         style="fill:#009e5a;fill-opacity:1;fill-rule:nonzero;stroke:none;stroke-width:0.35277778"
         id="path1750"
         inkscape:connector-curvature="0" />
      <path
         d="m 127.35848,184.06177 c -0.37324,0.14676 -0.91264,0.22084 -1.52012,0.22084 -1.30916,0 -2.36079,-0.63535 -2.36079,-1.89795 0,-1.62383 1.51307,-2.80599 3.61985,-2.80599 0.44062,0 0.81104,0.0512 1.08656,0.13335 l -0.44591,1.1878 c -0.17957,-0.054 -0.3683,-0.0864 -0.65158,-0.0864 -1.01812,0 -1.64218,0.65264 -1.64218,1.40547 0,0.57855 0.47554,0.8188 0.9398,0.8188 0.42368,0 0.72072,-0.0713 0.99307,-0.15946 z"
         style="fill:#009e5a;fill-opacity:1;fill-rule:nonzero;stroke:none;stroke-width:0.35277778"
         id="path1754"
         inkscape:connector-curvature="0" />
      <path
         d="m 130.14518,182.82412 c 0.18662,0.019 0.375,0.019 0.629,0.019 0.86889,0 1.63971,-0.28187 1.63971,-0.91757 0,-0.63571 -0.64946,-0.78035 -1.4478,-0.78035 h -0.44062 z m 0.7112,-2.97497 h 0.52493 c 0.89959,0 1.46191,-0.27835 1.46191,-0.77188 0,-0.43462 -0.44167,-0.62019 -1.03328,-0.62019 -0.28752,0 -0.51329,0.0173 -0.64523,0.0406 z m -1.53352,-2.5968 c 0.64346,-0.10725 1.50071,-0.17569 2.401,-0.17569 0.89359,0 1.5434,0.0684 2.15935,0.31962 0.641,0.23107 1.15041,0.71755 1.15041,1.37795 0,0.89147 -0.75424,1.40935 -1.65276,1.63689 v 0.0265 c 0.82691,0.22225 1.30351,0.78846 1.30351,1.52788 0,0.77646 -0.51153,1.31974 -1.21602,1.69615 -0.74507,0.40005 -1.87114,0.57221 -3.39161,0.57221 -1.05269,0 -1.87642,-0.0635 -2.30117,-0.13758 z"
         style="fill:#009e5a;fill-opacity:1;fill-rule:nonzero;stroke:none;stroke-width:0.35277778"
         id="path1758"
         inkscape:connector-curvature="0" />
      <path
         d="m 134.81056,184.18721 0.58808,-2.59151 c 0.1591,-0.71613 0.22296,-1.54375 0.27623,-1.91946 h 1.61854 c -0.0219,0.29986 -0.0444,0.60043 -0.078,0.90205 h 0.037 c 0.3937,-0.59266 1.0033,-1.00259 1.75189,-1.00259 0.10725,0 0.2092,10e-4 0.3108,0.007 l -0.36477,1.51941 c -0.0727,-0.003 -0.16263,-0.005 -0.25048,-0.005 -1.10384,0 -1.48096,0.72919 -1.66475,1.54552 l -0.34855,1.54411 z"
         style="fill:#009e5a;fill-opacity:1;fill-rule:nonzero;stroke:none;stroke-width:0.35277778"
         id="path1762"
         inkscape:connector-curvature="0" />
      <path
         d="m 138.67898,184.18721 1.02411,-4.51097 h 1.87749 l -1.02659,4.51097 z"
         style="fill:#009e5a;fill-opacity:1;fill-rule:nonzero;stroke:none;stroke-width:0.35277778"
         id="path1766"
         inkscape:connector-curvature="0" />
      <path
         d="m 145.33202,180.897 c -0.10689,-0.0794 -0.31291,-0.14111 -0.52141,-0.14111 -0.8068,0 -1.33702,0.81527 -1.33702,1.53917 0,0.54363 0.30691,0.73801 0.62653,0.73801 0.35207,0 0.78387,-0.2861 0.98213,-1.08303 z m 2.59186,-3.21945 -1.05551,4.62245 c -0.14323,0.6223 -0.23919,1.31409 -0.26882,1.88736 h -1.71556 l 0.0476,-0.66358 h -0.0191 c -0.46567,0.58279 -1.12325,0.76377 -1.6951,0.76377 -0.86677,0 -1.69721,-0.55704 -1.69721,-1.7265 0,-1.55328 1.32327,-2.98556 3.42441,-2.98556 0.1711,0 0.41557,0.0219 0.64382,0.0889 l 0.46672,-1.98684 z"
         style="fill:#009e5a;fill-opacity:1;fill-rule:nonzero;stroke:none;stroke-width:0.35277778"
         id="path1770"
         inkscape:connector-curvature="0" />
      <path
         d="m 150.91561,180.99729 c 0,-0.15487 -0.17604,-0.29139 -0.48366,-0.29139 -0.67663,0 -1.00471,0.42121 -1.0608,0.71508 1.14441,0.008 1.54446,-0.127 1.54446,-0.41452 z m 1.0862,2.93052 c -0.72213,0.29457 -1.56986,0.3549 -2.11949,0.3549 -1.59314,0 -2.45992,-0.6925 -2.45992,-1.94557 0,-1.37583 1.18887,-2.76154 3.23286,-2.76154 1.12889,0 2.00801,0.51505 2.01083,1.43721 0,1.12819 -1.23401,1.59174 -3.46851,1.53705 0.0236,0.1009 0.0896,0.21379 0.19756,0.29599 0.20673,0.15098 0.53622,0.23353 0.96273,0.23353 0.55421,0 1.07103,-0.0896 1.54411,-0.27446 z"
         style="fill:#009e5a;fill-opacity:1;fill-rule:nonzero;stroke:none;stroke-width:0.35277778"
         id="path1774"
         inkscape:connector-curvature="0" />
      <path
         d="m 140.96752,176.78629 c -0.65687,0 -1.18816,0.53058 -1.18816,1.18533 0,0.65405 0.53129,1.18639 1.18816,1.18639 0.6544,0 1.18533,-0.53234 1.18533,-1.18639 0,-0.65475 -0.53093,-1.18533 -1.18533,-1.18533"
         style="fill:#009e5a;fill-opacity:1;fill-rule:nonzero;stroke:none;stroke-width:0.35277778"
         id="path1778"
         inkscape:connector-curvature="0" />
      <path
         d="m 126.88819,185.99238 c -8.70303,1.64289 -16.13535,0.36195 -16.38018,-3.04377 -0.0991,-1.37477 0.95074,-2.88431 2.80741,-4.31517 -2.79189,1.72367 -4.45876,3.65125 -4.33494,5.36328 0.24483,3.40924 7.46902,4.68594 16.135,2.85538 2.17311,-0.46038 4.22804,-1.07174 6.08753,-1.78294 -1.11054,0.27799 -2.5146,0.58314 -4.31482,0.92322"
         style="fill:#4d5258;fill-opacity:1;fill-rule:nonzero;stroke:none;stroke-width:0.35277778"
         id="path1782"
         inkscape:connector-curvature="0" />
      <path
         d="m 140.12205,176.52919 c 0.24977,-0.1457 0.53728,-0.2353 0.84526,-0.23495 0.34043,0 0.65687,0.10266 0.9211,0.27693 0.002,-0.0857 0.005,-0.1718 -3.5e-4,-0.25647 -0.24483,-3.40783 -7.46902,-4.68595 -16.13394,-2.85256 -2.88678,0.60819 -5.56719,1.48696 -7.85178,2.51389 1.17581,-0.40992 2.85644,-0.871 5.45536,-1.45979 7.88987,-1.78964 15.34759,-0.77364 16.76435,2.01295"
         style="fill:#4d5258;fill-opacity:1;fill-rule:nonzero;stroke:none;stroke-width:0.35277778"
         id="path1786"
         inkscape:connector-curvature="0" />
    </g>
  </g>
</svg>
